<svg width="171" height="45" viewBox="0 0 171 45" fill="none" xmlns="http://www.w3.org/2000/svg">
<path d="M24.155 8.78087L24.33 8.94487L37.402 21.7869L36 23.2129L34.2 21.4449L34.201 34.9999C34.201 36.0539 33.385 36.9179 32.35 36.9939L32.201 36.9999H12.201C11.147 36.9999 10.283 36.1839 10.206 35.1489L10.201 34.9999L10.2 21.4459L8.402 23.2129L7 21.7869L20.058 8.95787C21.171 7.82187 22.966 7.75887 24.155 8.78087ZM21.569 10.2849L21.473 10.3719L12.2 19.4809L12.201 34.9999L17.2 34.9989L17.201 24.9999C17.201 23.9459 18.017 23.0819 19.052 23.0049L19.201 22.9999H25.201C26.255 22.9999 27.119 23.8159 27.196 24.8509L27.201 24.9999L27.2 34.9989L32.201 34.9999L32.2 19.4799L22.901 10.3439C22.537 9.98687 21.969 9.96487 21.569 10.2849ZM25.201 24.9999H19.201L19.2 34.9989H25.2L25.201 24.9999Z" fill="#1F1F1F"/>
<path d="M59.512 13.748C61.272 13.748 62.816 14.092 64.144 14.78C65.488 15.468 66.52 16.452 67.24 17.732C67.976 18.996 68.344 20.468 68.344 22.148C68.344 23.828 67.976 25.3 67.24 26.564C66.52 27.812 65.488 28.78 64.144 29.468C62.816 30.156 61.272 30.5 59.512 30.5H53.656V13.748H59.512ZM59.392 27.644C61.152 27.644 62.512 27.164 63.472 26.204C64.432 25.244 64.912 23.892 64.912 22.148C64.912 20.404 64.432 19.044 63.472 18.068C62.512 17.076 61.152 16.58 59.392 16.58H57.016V27.644H59.392ZM73.9311 27.74H79.8591V30.5H70.1151V27.788L75.9231 19.964H70.1391V17.204H79.7871V19.916L73.9311 27.74ZM92.6847 20.516V23.348H82.5087V20.516H92.6847ZM99.8129 16.46V20.66H105.453V23.324H99.8129V27.764H106.173V30.5H96.4529V13.724H106.173V16.46H99.8129ZM114.314 30.716C113.226 30.716 112.25 30.524 111.386 30.14C110.522 29.74 109.834 29.204 109.322 28.532C108.826 27.86 108.554 27.116 108.506 26.3H111.89C111.954 26.812 112.202 27.236 112.634 27.572C113.082 27.908 113.634 28.076 114.29 28.076C114.93 28.076 115.426 27.948 115.778 27.692C116.146 27.436 116.33 27.108 116.33 26.708C116.33 26.276 116.106 25.956 115.658 25.748C115.226 25.524 114.53 25.284 113.57 25.028C112.578 24.788 111.762 24.54 111.122 24.284C110.498 24.028 109.954 23.636 109.49 23.108C109.042 22.58 108.818 21.868 108.818 20.972C108.818 20.236 109.026 19.564 109.442 18.956C109.874 18.348 110.482 17.868 111.266 17.516C112.066 17.164 113.002 16.988 114.074 16.988C115.658 16.988 116.922 17.388 117.866 18.188C118.81 18.972 119.33 20.036 119.426 21.38H116.21C116.162 20.852 115.938 20.436 115.538 20.132C115.154 19.812 114.634 19.652 113.978 19.652C113.37 19.652 112.898 19.764 112.562 19.988C112.242 20.212 112.082 20.524 112.082 20.924C112.082 21.372 112.306 21.716 112.754 21.956C113.202 22.18 113.898 22.412 114.842 22.652C115.802 22.892 116.594 23.14 117.218 23.396C117.842 23.652 118.378 24.052 118.826 24.596C119.29 25.124 119.53 25.828 119.546 26.708C119.546 27.476 119.33 28.164 118.898 28.772C118.482 29.38 117.874 29.86 117.074 30.212C116.29 30.548 115.37 30.716 114.314 30.716ZM126.216 19.964V26.396C126.216 26.844 126.32 27.172 126.528 27.38C126.752 27.572 127.12 27.668 127.632 27.668H129.192V30.5H127.08C124.248 30.5 122.832 29.124 122.832 26.372V19.964H121.248V17.204H122.832V13.916H126.216V17.204H129.192V19.964H126.216ZM130.745 23.804C130.745 22.46 131.009 21.268 131.537 20.228C132.081 19.188 132.809 18.388 133.721 17.828C134.649 17.268 135.681 16.988 136.817 16.988C137.809 16.988 138.673 17.188 139.409 17.588C140.161 17.988 140.761 18.492 141.209 19.1V17.204H144.593V30.5H141.209V28.556C140.777 29.18 140.177 29.7 139.409 30.116C138.657 30.516 137.785 30.716 136.793 30.716C135.673 30.716 134.649 30.428 133.721 29.852C132.809 29.276 132.081 28.468 131.537 27.428C131.009 26.372 130.745 25.164 130.745 23.804ZM141.209 23.852C141.209 23.036 141.049 22.34 140.729 21.764C140.409 21.172 139.977 20.724 139.433 20.42C138.889 20.1 138.305 19.94 137.681 19.94C137.057 19.94 136.481 20.092 135.953 20.396C135.425 20.7 134.993 21.148 134.657 21.74C134.337 22.316 134.177 23.004 134.177 23.804C134.177 24.604 134.337 25.308 134.657 25.916C134.993 26.508 135.425 26.964 135.953 27.284C136.497 27.604 137.073 27.764 137.681 27.764C138.305 27.764 138.889 27.612 139.433 27.308C139.977 26.988 140.409 26.54 140.729 25.964C141.049 25.372 141.209 24.668 141.209 23.852ZM151.787 19.964V26.396C151.787 26.844 151.891 27.172 152.099 27.38C152.323 27.572 152.691 27.668 153.203 27.668H154.763V30.5H152.651C149.819 30.5 148.403 29.124 148.403 26.372V19.964H146.819V17.204H148.403V13.916H151.787V17.204H154.763V19.964H151.787ZM169.539 23.564C169.539 24.044 169.507 24.476 169.443 24.86H159.723C159.803 25.82 160.139 26.572 160.731 27.116C161.323 27.66 162.051 27.932 162.915 27.932C164.163 27.932 165.051 27.396 165.579 26.324H169.203C168.819 27.604 168.083 28.66 166.995 29.492C165.907 30.308 164.571 30.716 162.987 30.716C161.707 30.716 160.555 30.436 159.531 29.876C158.523 29.3 157.731 28.492 157.155 27.452C156.595 26.412 156.315 25.212 156.315 23.852C156.315 22.476 156.595 21.268 157.155 20.228C157.715 19.188 158.499 18.388 159.507 17.828C160.515 17.268 161.675 16.988 162.987 16.988C164.251 16.988 165.379 17.26 166.371 17.804C167.379 18.348 168.155 19.124 168.699 20.132C169.259 21.124 169.539 22.268 169.539 23.564ZM166.059 22.604C166.043 21.74 165.731 21.052 165.123 20.54C164.515 20.012 163.771 19.748 162.891 19.748C162.059 19.748 161.355 20.004 160.779 20.516C160.219 21.012 159.875 21.708 159.747 22.604H166.059Z" fill="#1F1F1F"/>
</svg>
